<svg width="19" height="21" viewBox="0 0 19 21" fill="none" xmlns="http://www.w3.org/2000/svg">
<path d="M12 16H6V17C6 18.6569 7.34315 20 9 20C10.6569 20 12 18.6569 12 17V16Z" fill="white"/>
<path d="M6 16V15C5.44772 15 5 15.4477 5 16H6ZM12 16H13C13 15.4477 12.5523 15 12 15V16ZM6 17H12V15H6V17ZM11 16V17H13V16H11ZM7 17V16H5V17H7ZM9 19C7.89543 19 7 18.1046 7 17H5C5 19.2091 6.79086 21 9 21V19ZM11 17C11 18.1046 10.1046 19 9 19V21C11.2091 21 13 19.2091 13 17H11Z" fill="#4F46E6"/>
<path d="M18 5C18 7.20914 16.2091 9 14 9C11.7909 9 10 7.20914 10 5C10 2.79086 11.7909 1 14 1C16.2091 1 18 2.79086 18 5Z" fill="white" stroke="#4F46E6" stroke-width="2" stroke-linecap="round" stroke-linejoin="round"/>
<path d="M11.0468 2.304C10.3994 2.10634 9.71212 2 9 2C5.134 2 2 5.13401 2 8.99998V12.7224C2 12.9002 1.9294 13.0706 1.80372 13.1963L1.29289 13.7071C1.10536 13.8947 1 14.149 1 14.4142V15C1 15.5523 1.44772 16 2 16H16C16.5523 16 17 15.5523 17 15V14.4142C17 14.149 16.8946 13.8947 16.7071 13.7071L16.1963 13.1963C16.0706 13.0706 16 12.9002 16 12.7224V8.99998C16 8.82354 15.9935 8.64862 15.9803 8.47617" stroke="#4F46E6" stroke-width="2" stroke-linecap="round" stroke-linejoin="round"/>
</svg>
